<svg width="179" height="32" viewBox="0 0 179 32" fill="none" xmlns="http://www.w3.org/2000/svg">
<path d="M178 1V31H31V1H178Z" stroke="black" stroke-width="2"/>
<path d="M31 1V31H1V1H31Z" stroke="black" stroke-width="2"/>
<path d="M74.107 22.136C73.979 22.7973 73.723 23.304 73.339 23.656C72.955 24.0187 72.3896 24.2 71.643 24.2H70.523L70.795 22.808H72.299L74.059 14.072H72.811L73.083 12.68H74.347L74.635 11.224C74.763 10.5627 75.019 10.056 75.403 9.704C75.787 9.34133 76.3523 9.16 77.099 9.16H78.331L78.059 10.552H76.427L76.011 12.68H77.627L77.355 14.072H75.723L74.107 22.136ZM80.4472 21.192C79.5086 21.192 78.7512 20.8987 78.1752 20.312C77.5992 19.7253 77.3112 18.872 77.3112 17.752C77.3112 17.0373 77.4179 16.36 77.6312 15.72C77.8446 15.08 78.1379 14.52 78.5112 14.04C78.8952 13.56 79.3486 13.1813 79.8712 12.904C80.3939 12.6267 80.9699 12.488 81.5992 12.488C82.5379 12.488 83.2952 12.7813 83.8712 13.368C84.4472 13.9547 84.7352 14.808 84.7352 15.928C84.7352 16.6533 84.6286 17.336 84.4152 17.976C84.2019 18.6053 83.9032 19.16 83.5192 19.64C83.1459 20.12 82.6979 20.4987 82.1752 20.776C81.6526 21.0533 81.0766 21.192 80.4472 21.192ZM80.5752 19.784C81.0979 19.784 81.5512 19.592 81.9352 19.208C82.3299 18.824 82.6019 18.264 82.7512 17.528L83.0232 16.2C83.0446 16.1147 83.0606 16.0187 83.0712 15.912C83.0819 15.8053 83.0872 15.6933 83.0872 15.576C83.0872 15.064 82.9486 14.6587 82.6712 14.36C82.4046 14.0507 82.0046 13.896 81.4712 13.896C80.9486 13.896 80.4899 14.088 80.0952 14.472C79.7112 14.856 79.4446 15.416 79.2952 16.152L79.0232 17.48C79.0019 17.576 78.9859 17.6773 78.9752 17.784C78.9646 17.88 78.9592 17.9867 78.9592 18.104C78.9592 18.616 79.0926 19.0267 79.3592 19.336C79.6366 19.6347 80.0419 19.784 80.5752 19.784ZM85.5168 21L87.1808 12.68H88.8448L88.4928 14.456H88.5888C88.6848 14.2427 88.8022 14.0293 88.9408 13.816C89.0902 13.6027 89.2662 13.416 89.4688 13.256C89.6715 13.0853 89.9008 12.9467 90.1568 12.84C90.4235 12.7333 90.7222 12.68 91.0528 12.68H91.5168L91.1808 14.328H90.6208C89.8848 14.328 89.3142 14.504 88.9088 14.856C88.5035 15.208 88.2422 15.688 88.1248 16.296L87.1808 21H85.5168Z" fill="black"/>
<path d="M40.7038 21.5V10.332H47.8398V12.3H43.1038V14.86H47.6798V16.828H43.1038V19.532H47.8398V21.5H40.7038ZM57.5775 21.5H49.5455V19.308L53.0655 16.38C53.6735 15.8573 54.1108 15.404 54.3775 15.02C54.6442 14.636 54.7775 14.2307 54.7775 13.804V13.644C54.7775 13.1747 54.6388 12.8227 54.3615 12.588C54.0842 12.3427 53.7108 12.22 53.2415 12.22C52.7082 12.22 52.2975 12.3747 52.0095 12.684C51.7215 12.9933 51.5188 13.3613 51.4015 13.788L49.3055 12.988C49.4335 12.604 49.6095 12.2413 49.8335 11.9C50.0575 11.548 50.3402 11.244 50.6815 10.988C51.0335 10.732 51.4388 10.5293 51.8975 10.38C52.3562 10.22 52.8842 10.14 53.4815 10.14C54.0895 10.14 54.6335 10.2253 55.1135 10.396C55.5935 10.5667 55.9988 10.8013 56.3295 11.1C56.6602 11.3987 56.9108 11.756 57.0815 12.172C57.2522 12.5773 57.3375 13.02 57.3375 13.5C57.3375 13.9693 57.2575 14.4013 57.0975 14.796C56.9482 15.18 56.7348 15.5427 56.4575 15.884C56.1908 16.2253 55.8708 16.556 55.4975 16.876C55.1348 17.196 54.7455 17.516 54.3295 17.836L52.2015 19.484H57.5775V21.5ZM59.2033 10.332H63.1233C64.2219 10.332 65.0593 10.5987 65.6353 11.132C66.2219 11.6653 66.5153 12.3907 66.5153 13.308C66.5153 13.948 66.3553 14.46 66.0353 14.844C65.7259 15.2173 65.2779 15.4893 64.6913 15.66V15.756C65.3846 15.9267 65.9179 16.2253 66.2913 16.652C66.6753 17.0787 66.8673 17.6707 66.8673 18.428C66.8673 19.3667 66.5686 20.1133 65.9713 20.668C65.3846 21.2227 64.5579 21.5 63.4913 21.5H59.2033V10.332ZM62.7553 19.82C63.3313 19.82 63.7526 19.724 64.0193 19.532C64.2859 19.34 64.4193 18.988 64.4193 18.476V18.012C64.4193 17.5 64.2859 17.148 64.0193 16.956C63.7526 16.764 63.3313 16.668 62.7553 16.668H61.5393V19.82H62.7553ZM62.4513 15.068C63.0166 15.068 63.4273 14.9773 63.6833 14.796C63.9393 14.604 64.0673 14.2627 64.0673 13.772V13.292C64.0673 12.8013 63.9393 12.4653 63.6833 12.284C63.4273 12.1027 63.0166 12.012 62.4513 12.012H61.5393V15.068H62.4513ZM99.6903 21.692C98.7516 21.692 97.9356 21.5373 97.2423 21.228C96.5489 20.9187 95.9889 20.4973 95.5623 19.964L96.9543 18.428C97.3596 18.876 97.8023 19.2067 98.2823 19.42C98.7729 19.6333 99.2689 19.74 99.7703 19.74C100.346 19.74 100.784 19.612 101.082 19.356C101.381 19.1 101.53 18.732 101.53 18.252C101.53 17.8573 101.413 17.5587 101.178 17.356C100.954 17.1533 100.57 17.0093 100.026 16.924L98.8583 16.732C97.8556 16.5613 97.1303 16.1933 96.6823 15.628C96.2343 15.052 96.0103 14.3533 96.0103 13.532C96.0103 12.4547 96.3623 11.6227 97.0663 11.036C97.7703 10.4387 98.7569 10.14 100.026 10.14C100.89 10.14 101.642 10.2733 102.282 10.54C102.922 10.8067 103.44 11.1693 103.834 11.628L102.474 13.148C102.176 12.8173 101.824 12.5613 101.418 12.38C101.013 12.188 100.554 12.092 100.042 12.092C98.9649 12.092 98.4263 12.5347 98.4263 13.42C98.4263 13.804 98.5436 14.092 98.7783 14.284C99.0236 14.476 99.4183 14.62 99.9623 14.716L101.13 14.924C102.037 15.084 102.736 15.4253 103.226 15.948C103.717 16.4707 103.962 17.1747 103.962 18.06C103.962 18.5827 103.872 19.068 103.69 19.516C103.509 19.9533 103.237 20.3373 102.874 20.668C102.512 20.988 102.064 21.2387 101.53 21.42C101.008 21.6013 100.394 21.692 99.6903 21.692ZM110.34 12.3V21.5H107.94V12.3H104.724V10.332H113.556V12.3H110.34ZM120.574 21.5L119.87 18.812H116.814L116.126 21.5H113.694L116.718 10.332H120.11L123.134 21.5H120.574ZM118.414 12.652H118.286L117.198 16.876H119.502L118.414 12.652ZM126.472 21.5H124.104V10.332H128.424C128.968 10.332 129.453 10.4173 129.88 10.588C130.306 10.748 130.664 10.9827 130.952 11.292C131.25 11.6013 131.474 11.9747 131.624 12.412C131.773 12.8493 131.848 13.34 131.848 13.884C131.848 14.6733 131.677 15.3507 131.336 15.916C130.994 16.4813 130.509 16.8547 129.88 17.036L132.072 21.5H129.448L127.576 17.356H126.472V21.5ZM127.848 15.5C128.413 15.5 128.802 15.3933 129.016 15.18C129.24 14.9667 129.352 14.6147 129.352 14.124V13.644C129.352 13.1533 129.24 12.8013 129.016 12.588C128.802 12.3747 128.413 12.268 127.848 12.268H126.472V15.5H127.848ZM138.161 12.3V21.5H135.761V12.3H132.545V10.332H141.377V12.3H138.161ZM144.715 10.332V17.404C144.715 17.756 144.726 18.0813 144.747 18.38C144.779 18.668 144.843 18.9133 144.939 19.116C145.046 19.3187 145.2 19.4787 145.403 19.596C145.606 19.7027 145.883 19.756 146.235 19.756C146.587 19.756 146.864 19.7027 147.067 19.596C147.27 19.4787 147.419 19.3187 147.515 19.116C147.622 18.9133 147.686 18.668 147.707 18.38C147.739 18.0813 147.755 17.756 147.755 17.404V10.332H150.155V17.084C150.155 17.852 150.102 18.524 149.995 19.1C149.899 19.676 149.707 20.156 149.419 20.54C149.131 20.924 148.731 21.212 148.219 21.404C147.707 21.596 147.046 21.692 146.235 21.692C145.424 21.692 144.763 21.596 144.251 21.404C143.739 21.212 143.339 20.924 143.051 20.54C142.763 20.156 142.566 19.676 142.459 19.1C142.363 18.524 142.315 17.852 142.315 17.084V10.332H144.715ZM151.925 21.5V10.332H156.245C156.789 10.332 157.274 10.4173 157.701 10.588C158.127 10.748 158.485 10.9827 158.773 11.292C159.071 11.6013 159.295 11.9747 159.445 12.412C159.594 12.8493 159.669 13.34 159.669 13.884C159.669 14.428 159.594 14.9187 159.445 15.356C159.295 15.7933 159.071 16.1667 158.773 16.476C158.485 16.7853 158.127 17.0253 157.701 17.196C157.274 17.356 156.789 17.436 156.245 17.436H154.341V21.5H151.925ZM154.341 15.5H155.637C156.202 15.5 156.591 15.3933 156.805 15.18C157.029 14.9667 157.141 14.6147 157.141 14.124V13.644C157.141 13.1533 157.029 12.8013 156.805 12.588C156.591 12.3747 156.202 12.268 155.637 12.268H154.341V15.5ZM164.606 21.692C163.668 21.692 162.852 21.5373 162.158 21.228C161.465 20.9187 160.905 20.4973 160.478 19.964L161.87 18.428C162.276 18.876 162.718 19.2067 163.198 19.42C163.689 19.6333 164.185 19.74 164.686 19.74C165.262 19.74 165.7 19.612 165.998 19.356C166.297 19.1 166.446 18.732 166.446 18.252C166.446 17.8573 166.329 17.5587 166.094 17.356C165.87 17.1533 165.486 17.0093 164.942 16.924L163.774 16.732C162.772 16.5613 162.046 16.1933 161.598 15.628C161.15 15.052 160.926 14.3533 160.926 13.532C160.926 12.4547 161.278 11.6227 161.982 11.036C162.686 10.4387 163.673 10.14 164.942 10.14C165.806 10.14 166.558 10.2733 167.198 10.54C167.838 10.8067 168.356 11.1693 168.75 11.628L167.39 13.148C167.092 12.8173 166.74 12.5613 166.334 12.38C165.929 12.188 165.47 12.092 164.958 12.092C163.881 12.092 163.342 12.5347 163.342 13.42C163.342 13.804 163.46 14.092 163.694 14.284C163.94 14.476 164.334 14.62 164.878 14.716L166.046 14.924C166.953 15.084 167.652 15.4253 168.142 15.948C168.633 16.4707 168.878 17.1747 168.878 18.06C168.878 18.5827 168.788 19.068 168.606 19.516C168.425 19.9533 168.153 20.3373 167.79 20.668C167.428 20.988 166.98 21.2387 166.446 21.42C165.924 21.6013 165.31 21.692 164.606 21.692Z" fill="black"/>
<path fill-rule="evenodd" clip-rule="evenodd" d="M22.8046 20.1427C22.6672 20.1427 22.5813 20.2915 22.65 20.4106L24.0879 22.9012C24.1675 23.039 24.0407 23.2042 23.8871 23.163L19.526 21.9944C19.3354 21.9433 19.1396 22.0564 19.0886 22.2469L17.92 26.6081C17.8788 26.7618 17.6724 26.7889 17.5928 26.6512L16.1546 24.16C16.0859 24.041 15.9141 24.041 15.8453 24.16L14.4071 26.6512C14.3276 26.7889 14.1211 26.7618 14.08 26.6081L12.9114 22.2469C12.8603 22.0564 12.6645 21.9433 12.474 21.9944L8.11286 23.163C7.95919 23.2042 7.83245 23.039 7.91199 22.9012L9.34993 20.4106C9.41866 20.2915 9.33275 20.1427 9.19529 20.1427L6.31955 20.1427C6.16046 20.1427 6.08079 19.9503 6.19329 19.8378L9.38588 16.6453C9.52536 16.5058 9.52536 16.2797 9.38588 16.1402L6.19329 12.9476C6.08079 12.8351 6.16047 12.6428 6.31956 12.6428L9.19498 12.6428C9.33245 12.6428 9.41836 12.494 9.34963 12.375L7.91199 9.88482C7.83245 9.74704 7.95919 9.58187 8.11286 9.62305L12.474 10.7917C12.6645 10.8427 12.8603 10.7296 12.9114 10.5391L14.08 6.17794C14.1211 6.02427 14.3276 5.99709 14.4071 6.13487L15.8453 8.62599C15.914 8.74504 16.0859 8.74504 16.1546 8.62599L17.5928 6.13487C17.6724 5.99709 17.8788 6.02427 17.92 6.17794L19.0885 10.5391C19.1396 10.7296 19.3354 10.8427 19.526 10.7917L23.8871 9.62305C24.0407 9.58187 24.1675 9.74704 24.0879 9.88482L22.6503 12.375C22.5816 12.494 22.6675 12.6428 22.8049 12.6428L25.6805 12.6428C25.8396 12.6428 25.9192 12.8351 25.8067 12.9476L22.6141 16.1402C22.4747 16.2797 22.4747 16.5058 22.6141 16.6453L25.8067 19.8378C25.9192 19.9503 25.8396 20.1427 25.6805 20.1427L22.8046 20.1427ZM21.707 13.2974C21.8362 13.1682 21.711 12.9513 21.5346 12.9986L17.651 14.0393C17.4605 14.0903 17.2646 13.9772 17.2136 13.7867L16.1724 9.90116C16.1252 9.72469 15.8748 9.72469 15.8275 9.90116L14.7863 13.7867C14.7353 13.9772 14.5394 14.0903 14.3489 14.0393L10.4655 12.9987C10.289 12.9514 10.1638 13.1682 10.293 13.2974L13.1359 16.1403C13.2753 16.2797 13.2753 16.5059 13.1359 16.6453L10.2923 19.4888C10.1632 19.618 10.2884 19.8349 10.4648 19.7876L14.3489 18.7468C14.5394 18.6957 14.7353 18.8088 14.7863 18.9993L15.8275 22.8849C15.8748 23.0614 16.1252 23.0614 16.1725 22.8849L17.2136 18.9993C17.2647 18.8088 17.4605 18.6957 17.651 18.7468L21.5352 19.7876C21.7117 19.8349 21.8369 19.618 21.7077 19.4888L18.8642 16.6453C18.7247 16.5059 18.7247 16.2797 18.8642 16.1403L21.707 13.2974Z" fill="black"/>
</svg>
